# xmcd
#
# Track frame offsets:
#	150
#	12759
#	25030
#	34114
#	43826
#	52132
#	62088
#	72044
#	84428
#	94243
#	103364
#	112242
#	123388
#	133250
#
# Disc length: 1896 seconds
# Revision: 0
# Processed by: cddbd v1.5.2PL0 Copyright (c) Steve Scherf et al.
# Submitted via: dBpowerAMP V12.0
#
DISCID=c807660e
DTITLE=Johnny Cash - All-Time Greatest Hits
DYEAR=2014
DGENRE=Country
TTITLE0=Folsom Prison Blues
TTITLE1=I Walk The Line
TTITLE2=Blue Train
TTITLE3=Rock Island Line
TTITLE4=Country Boy
TTITLE5=Hey Porter
TTITLE6=Get Rhythm
TTITLE7=Next In Line
TTITLE8=Born To Lose
TTITLE9=Luther Played The Boogie
TTITLE10=The Wreck Of The Old '97
TTITLE11=Oh, Lonesome Me
TTITLE12=Ballad Of A Teenage Queen
TTITLE13=Katy Too
EXTD=
EXTT0=
EXTT1=
EXTT2=
EXTT3=
EXTT4=
EXTT5=
EXTT6=
EXTT7=
EXTT8=
EXTT9=
EXTT10=
EXTT11=
EXTT12=
EXTT13=
PLAYORDER=
